<?xml version="1.0" encoding="UTF-8" standalone="no"?>
<!DOCTYPE svg PUBLIC "-//W3C//DTD SVG 1.1//EN"
 "http://www.w3.org/Graphics/SVG/1.1/DTD/svg11.dtd">
<!-- Generated by graphviz version 2.43.0 (0)
 -->
<!-- Title: sourcetree Pages: 1 -->
<svg width="306pt" height="116pt"
 viewBox="0.00 0.00 305.50 116.00" xmlns="http://www.w3.org/2000/svg" xmlns:xlink="http://www.w3.org/1999/xlink">
<g id="graph0" class="graph" transform="scale(1 1) rotate(0) translate(4 112)">
<title>sourcetree</title>
<polygon fill="white" stroke="transparent" points="-4,4 -4,-112 301.5,-112 301.5,4 -4,4"/>
<!-- MulleInvocationQueue -->
<g id="node1" class="node">
<title>MulleInvocationQueue</title>
<polygon fill="yellow" stroke="black" points="253.5,-108 76.5,-108 76.5,-72 253.5,-72 253.5,-108"/>
<text text-anchor="middle" x="165" y="-86.3" font-family="Times,serif" font-size="14.00">MulleInvocationQueue</text>
</g>
<!-- MulleFoundationBase -->
<g id="node2" class="node">
<title>MulleFoundationBase</title>
<g id="a_node2"><a xlink:href="https://github.com/MulleFoundation/MulleFoundationBase" xlink:title="MulleFoundationBase">
<polygon fill="lightgrey" stroke="black" points="172,-36 0,-36 0,0 172,0 172,-36"/>
<text text-anchor="middle" x="86" y="-14.3" font-family="Times,serif" font-size="14.00">MulleFoundationBase</text>
</a>
</g>
</g>
<!-- MulleInvocationQueue&#45;&gt;MulleFoundationBase -->
<g id="edge1" class="edge">
<title>MulleInvocationQueue&#45;&gt;MulleFoundationBase</title>
<path fill="none" stroke="black" d="M145.47,-71.7C135.62,-62.97 123.51,-52.24 112.8,-42.75"/>
<polygon fill="black" stroke="black" points="115.11,-40.12 105.3,-36.1 110.47,-45.36 115.11,-40.12"/>
</g>
<!-- MulleThread -->
<g id="node3" class="node">
<title>MulleThread</title>
<g id="a_node3"><a xlink:href="https://github.com/MulleFoundation/MulleThread" xlink:title="MulleThread">
<polygon fill="lightgrey" stroke="black" points="297.5,-36 190.5,-36 190.5,0 297.5,0 297.5,-36"/>
<text text-anchor="middle" x="244" y="-14.3" font-family="Times,serif" font-size="14.00">MulleThread</text>
</a>
</g>
</g>
<!-- MulleInvocationQueue&#45;&gt;MulleThread -->
<g id="edge2" class="edge">
<title>MulleInvocationQueue&#45;&gt;MulleThread</title>
<path fill="none" stroke="black" d="M184.53,-71.7C194.38,-62.97 206.49,-52.24 217.2,-42.75"/>
<polygon fill="black" stroke="black" points="219.53,-45.36 224.7,-36.1 214.89,-40.12 219.53,-45.36"/>
</g>
</g>
</svg>
